<?xml version="1.0" encoding="utf-8"?>
<!-- Generator: Adobe Illustrator 30.4.0, SVG Export Plug-In . SVG Version: 9.03 Build 0)  -->
<svg version="1.0" id="Layer_1" xmlns="http://www.w3.org/2000/svg" xmlns:xlink="http://www.w3.org/1999/xlink" x="0px" y="0px"
	 viewBox="0 0 141.73 141.73" style="enable-background:new 0 0 141.73 141.73;" xml:space="preserve">
<style type="text/css">
	.st0{fill:#006838;}
	.st1{fill:#FFFFFF;}
</style>
<circle class="st0" cx="70.87" cy="70.87" r="70.87"/>
<g>
	<path class="st1" d="M26.96,66.29c-5.63-5.54-8.81-13.48-9-21.38c-0.08-1.15,0.07-2.4,0.12-3.56c0.2-2.67,2.44-5.05,5.13-5.39
		c10.08-0.68,22.07,1.57,28.2,10.34c-8.39-5.24-17.99-5.86-27.48-5.33c-0.48,0.07-0.86,0.47-0.91,0.96c-0.03,0.27-0.1,1.02-0.13,1.3
		C22.11,51.16,23.94,58.74,26.96,66.29L26.96,66.29z"/>
	<path class="st1" d="M59.18,64.69c-8.25-13.54-9.15-32.64,1.61-45.21c1.22-1.57,2.79-3.09,4.26-4.43c0.66-0.65,1.43-1.25,2.31-1.57
		c3.59-1.51,6.66,1.32,9.2,3.51c13.44,11.73,15,29.41,6.97,44.75c-2.38,4.69-5.3,9.03-8.69,12.95c2.78-5.11,5.24-10.28,7.03-15.72
		c3.72-11.05,3.55-23.45-3.8-32.92c-2.14-2.87-4.77-5.41-7.67-7.52c-0.46-0.39-1.05-0.64-1.58-0.2
		C54.52,29.85,53.45,48.23,59.18,64.69L59.18,64.69z"/>
	<path class="st1" d="M88.5,45.96c5.8-5.55,14.13-8.84,22.42-8.98c0.82-0.06,1.99,0.02,2.81,0.08c1.09,0.07,2.38,0.12,3.38,0.66
		c2.17,0.99,3.63,3.38,3.62,5.75c0,0,0.04,0.7,0.04,0.7c0.13,2.8-0.02,5.59-0.44,8.36c-1.32,9.34-6.73,18.36-15.34,22.62
		c-4.88,2.46-10.47,3.56-15.85,3.39c6.84-1.9,13.3-4.74,17.93-9.43c5.86-5.78,8.42-14.16,8.75-22.31c0.05-1.03,0.06-2.09,0.04-3.12
		c0.07-0.93-0.37-1.82-1.37-2.01C105.64,40.15,96.8,41.82,88.5,45.96L88.5,45.96z"/>
	<path class="st1" d="M106.98,74.68c5.81,2.39,11.82,5.72,15.89,10.65c3.23,6.32-5.9,13.27-10.8,15.6
		c-11.98,5.85-27.46,5.02-37.75-3.91c-3.42-2.71-5.73-6.42-8.44-9.76c-10.45-12.28-29.02-14.93-41.86-4.75
		c-1.15,0.92-2.28,1.88-3.3,2.95c0,0-0.99,1.03-0.99,1.03c-0.79,0.81-0.88,2.27-0.17,3.28c1.23,1.53,2.6,2.97,4.03,4.31
		c7.26,7.03,17.53,11.15,27.52,7.86c3.93-1.18,7.59-3.27,11.02-5.69c-6.13,5.89-14.6,9.96-23.35,8.85
		c-8.67-1.07-16.24-6.24-22.03-12.54c-2.45-2.6-2.31-6.99,0.3-9.45c0.58-0.59,1.11-1.26,1.72-1.81
		c16.11-16.11,41.67-12.01,53.82,6.67c8.51,12.48,24.54,15.55,38.1,9.96c3.92-1.49,12.26-6.99,10.47-11.66
		C117.51,81.34,112.28,77.7,106.98,74.68L106.98,74.68z"/>
	<circle class="st1" cx="70.39" cy="108.46" r="3.68"/>
</g>
</svg>
